<svg id="visual" viewBox="0 0 900 600" width="900" height="600" xmlns="http://www.w3.org/2000/svg" xmlns:xlink="http://www.w3.org/1999/xlink" version="1.1"><g stroke-width="1" stroke-linejoin="bevel"><path d="M464 360L412 428L482 484Z" fill="#6940fa" stroke="#6940fa"></path><path d="M482 484L565 434L464 360Z" fill="#6839fb" stroke="#6839fb"></path><path d="M302 416L371 460L412 428Z" fill="#6839fb" stroke="#6839fb"></path><path d="M412 428L371 460L482 484Z" fill="#6c4df7" stroke="#6c4df7"></path><path d="M565 434L538 314L464 360Z" fill="#6f58f4" stroke="#6f58f4"></path><path d="M482 484L582 490L565 434Z" fill="#6839fb" stroke="#6839fb"></path><path d="M565 434L566 281L538 314Z" fill="#715df2" stroke="#715df2"></path><path d="M730 389L566 281L565 434Z" fill="#6626fd" stroke="#6626fd"></path><path d="M538 314L383 275L464 360Z" fill="#6730fc" stroke="#6730fc"></path><path d="M383 275L412 428L464 360Z" fill="#6d52f6" stroke="#6d52f6"></path><path d="M383 275L302 416L412 428Z" fill="#6940fa" stroke="#6940fa"></path><path d="M483 184L383 275L538 314Z" fill="#6839fb" stroke="#6839fb"></path><path d="M407 600L504 600L482 484Z" fill="#6f58f4" stroke="#6f58f4"></path><path d="M482 484L504 600L582 490Z" fill="#715df2" stroke="#715df2"></path><path d="M407 600L482 484L371 460Z" fill="#6626fd" stroke="#6626fd"></path><path d="M302 416L313 520L371 460Z" fill="#6619fe" stroke="#6619fe"></path><path d="M313 520L407 600L371 460Z" fill="#6839fb" stroke="#6839fb"></path><path d="M504 600L584 600L582 490Z" fill="#6a47f9" stroke="#6a47f9"></path><path d="M584 600L661 527L582 490Z" fill="#6839fb" stroke="#6839fb"></path><path d="M582 490L730 389L565 434Z" fill="#6c4df7" stroke="#6c4df7"></path><path d="M566 281L483 184L538 314Z" fill="#6d52f6" stroke="#6d52f6"></path><path d="M483 184L406 193L383 275Z" fill="#715df2" stroke="#715df2"></path><path d="M383 275L265 283L302 416Z" fill="#6d52f6" stroke="#6d52f6"></path><path d="M282 231L265 283L383 275Z" fill="#6730fc" stroke="#6730fc"></path><path d="M187 494L274 600L313 520Z" fill="#6940fa" stroke="#6940fa"></path><path d="M661 527L730 389L582 490Z" fill="#6730fc" stroke="#6730fc"></path><path d="M566 281L637 184L483 184Z" fill="#6600ff" stroke="#6600ff"></path><path d="M584 600L663 600L661 527Z" fill="#6d52f6" stroke="#6d52f6"></path><path d="M661 527L797 513L730 389Z" fill="#715df2" stroke="#715df2"></path><path d="M313 520L274 600L407 600Z" fill="#6a47f9" stroke="#6a47f9"></path><path d="M187 494L313 520L302 416Z" fill="#6c4df7" stroke="#6c4df7"></path><path d="M406 193L282 231L383 275Z" fill="#715df2" stroke="#715df2"></path><path d="M191 286L191 413L265 283Z" fill="#6d52f6" stroke="#6d52f6"></path><path d="M265 283L191 413L302 416Z" fill="#6d52f6" stroke="#6d52f6"></path><path d="M680 198L637 184L566 281Z" fill="#715df2" stroke="#715df2"></path><path d="M730 389L736 299L566 281Z" fill="#6940fa" stroke="#6940fa"></path><path d="M191 413L187 494L302 416Z" fill="#715df2" stroke="#715df2"></path><path d="M736 299L680 198L566 281Z" fill="#6f58f4" stroke="#6f58f4"></path><path d="M406 193L389 130L282 231Z" fill="#6839fb" stroke="#6839fb"></path><path d="M483 184L389 130L406 193Z" fill="#6626fd" stroke="#6626fd"></path><path d="M522 67L389 130L483 184Z" fill="#6619fe" stroke="#6619fe"></path><path d="M282 231L191 286L265 283Z" fill="#6730fc" stroke="#6730fc"></path><path d="M94 395L139 521L187 494Z" fill="#715df2" stroke="#715df2"></path><path d="M160 238L191 286L282 231Z" fill="#6839fb" stroke="#6839fb"></path><path d="M187 494L205 600L274 600Z" fill="#6839fb" stroke="#6839fb"></path><path d="M663 600L797 513L661 527Z" fill="#715df2" stroke="#715df2"></path><path d="M730 389L803 317L736 299Z" fill="#6940fa" stroke="#6940fa"></path><path d="M797 513L815 429L730 389Z" fill="#6626fd" stroke="#6626fd"></path><path d="M736 299L839 199L680 198Z" fill="#6600ff" stroke="#6600ff"></path><path d="M815 429L803 317L730 389Z" fill="#715df2" stroke="#715df2"></path><path d="M94 395L187 494L191 413Z" fill="#6940fa" stroke="#6940fa"></path><path d="M187 494L139 521L205 600Z" fill="#6730fc" stroke="#6730fc"></path><path d="M160 238L131 326L191 286Z" fill="#6940fa" stroke="#6940fa"></path><path d="M191 286L131 326L191 413Z" fill="#6839fb" stroke="#6839fb"></path><path d="M617 68L522 67L637 184Z" fill="#6626fd" stroke="#6626fd"></path><path d="M637 184L522 67L483 184Z" fill="#6619fe" stroke="#6619fe"></path><path d="M176 127L160 238L282 231Z" fill="#6a47f9" stroke="#6a47f9"></path><path d="M310 62L282 231L389 130Z" fill="#6a47f9" stroke="#6a47f9"></path><path d="M0 430L94 395L0 266Z" fill="#6f58f4" stroke="#6f58f4"></path><path d="M131 326L94 395L191 413Z" fill="#715df2" stroke="#715df2"></path><path d="M702 78L617 68L637 184Z" fill="#6a47f9" stroke="#6a47f9"></path><path d="M702 78L637 184L680 198Z" fill="#6730fc" stroke="#6730fc"></path><path d="M663 600L825 600L797 513Z" fill="#6839fb" stroke="#6839fb"></path><path d="M900 502L900 439L815 429Z" fill="#6f58f4" stroke="#6f58f4"></path><path d="M416 0L389 130L522 67Z" fill="#6839fb" stroke="#6839fb"></path><path d="M416 0L310 62L389 130Z" fill="#6626fd" stroke="#6626fd"></path><path d="M839 199L702 78L680 198Z" fill="#6730fc" stroke="#6730fc"></path><path d="M310 62L176 127L282 231Z" fill="#6a47f9" stroke="#6a47f9"></path><path d="M160 238L0 266L131 326Z" fill="#6d52f6" stroke="#6d52f6"></path><path d="M602 0L522 67L617 68Z" fill="#6940fa" stroke="#6940fa"></path><path d="M602 0L499 0L522 67Z" fill="#6a47f9" stroke="#6a47f9"></path><path d="M499 0L416 0L522 67Z" fill="#6c4df7" stroke="#6c4df7"></path><path d="M112 0L137 131L176 127Z" fill="#715df2" stroke="#715df2"></path><path d="M900 502L815 429L797 513Z" fill="#6600ff" stroke="#6600ff"></path><path d="M815 429L900 295L803 317Z" fill="#6c4df7" stroke="#6c4df7"></path><path d="M803 317L839 199L736 299Z" fill="#6626fd" stroke="#6626fd"></path><path d="M900 295L839 199L803 317Z" fill="#6839fb" stroke="#6839fb"></path><path d="M0 482L80 600L139 521Z" fill="#6839fb" stroke="#6839fb"></path><path d="M139 521L80 600L205 600Z" fill="#6f58f4" stroke="#6f58f4"></path><path d="M825 600L900 502L797 513Z" fill="#6a47f9" stroke="#6a47f9"></path><path d="M682 0L602 0L617 68Z" fill="#6940fa" stroke="#6940fa"></path><path d="M900 439L900 295L815 429Z" fill="#6c4df7" stroke="#6c4df7"></path><path d="M235 0L176 127L310 62Z" fill="#715df2" stroke="#715df2"></path><path d="M176 127L137 131L160 238Z" fill="#6d52f6" stroke="#6d52f6"></path><path d="M416 0L304 0L310 62Z" fill="#6d52f6" stroke="#6d52f6"></path><path d="M825 600L900 600L900 502Z" fill="#6c4df7" stroke="#6c4df7"></path><path d="M137 131L87 169L160 238Z" fill="#715df2" stroke="#715df2"></path><path d="M94 395L0 482L139 521Z" fill="#715df2" stroke="#715df2"></path><path d="M0 131L87 169L137 131Z" fill="#6940fa" stroke="#6940fa"></path><path d="M702 78L682 0L617 68Z" fill="#715df2" stroke="#715df2"></path><path d="M808 0L682 0L702 78Z" fill="#6619fe" stroke="#6619fe"></path><path d="M0 266L94 395L131 326Z" fill="#6626fd" stroke="#6626fd"></path><path d="M900 295L900 207L839 199Z" fill="#6626fd" stroke="#6626fd"></path><path d="M839 199L839 66L702 78Z" fill="#6f58f4" stroke="#6f58f4"></path><path d="M0 430L0 482L94 395Z" fill="#6626fd" stroke="#6626fd"></path><path d="M304 0L235 0L310 62Z" fill="#6600ff" stroke="#6600ff"></path><path d="M0 217L0 266L87 169Z" fill="#6940fa" stroke="#6940fa"></path><path d="M87 169L0 266L160 238Z" fill="#6730fc" stroke="#6730fc"></path><path d="M0 482L0 600L80 600Z" fill="#6940fa" stroke="#6940fa"></path><path d="M900 127L839 66L839 199Z" fill="#6600ff" stroke="#6600ff"></path><path d="M0 131L0 217L87 169Z" fill="#6c4df7" stroke="#6c4df7"></path><path d="M900 207L900 127L839 199Z" fill="#6839fb" stroke="#6839fb"></path><path d="M900 0L808 0L839 66Z" fill="#6c4df7" stroke="#6c4df7"></path><path d="M839 66L808 0L702 78Z" fill="#6a47f9" stroke="#6a47f9"></path><path d="M235 0L112 0L176 127Z" fill="#6730fc" stroke="#6730fc"></path><path d="M112 0L0 131L137 131Z" fill="#6f58f4" stroke="#6f58f4"></path><path d="M900 127L900 0L839 66Z" fill="#6d52f6" stroke="#6d52f6"></path><path d="M112 0L0 0L0 131Z" fill="#6d52f6" stroke="#6d52f6"></path></g></svg>